<?xml version="1.0" standalone="no"?><!DOCTYPE svg PUBLIC "-//W3C//DTD SVG 1.1//EN" "http://www.w3.org/Graphics/SVG/1.1/DTD/svg11.dtd"><svg t="1742112688840" class="icon" viewBox="0 0 1024 1024" version="1.1" xmlns="http://www.w3.org/2000/svg" p-id="11843" xmlns:xlink="http://www.w3.org/1999/xlink" width="200" height="200"><path d="M527.490809 38.987966c-213.690894 0-386.662387 173.623339-386.662387 388.29149 0 214.341716 376.890836 578.528206 376.890836 578.528206s372.32996-364.18649 372.32996-578.528206S741.181703 38.987966 527.490809 38.987966zM515.438309 691.134867c-153.427368 0-277.862425-124.43608-277.862425-277.862425s124.43608-277.862425 277.862425-277.862425c153.427368 0 277.863449 124.43608 277.863449 277.862425S668.865677 691.134867 515.438309 691.134867z" fill="#d81e06" p-id="11844"></path><path d="M691.53764 438.68052l-170.301073-132.188443-170.366156 132.188443 0-53.878709 170.301073-132.188443 170.300869 132.188443 0 53.878709L691.53764 438.68052zM648.92983 433.85952l0 127.758346-85.150537 0 0-85.150537-85.150537 0 0 85.150537-85.150537 0 0-127.758346 127.758346-95.769794L648.92983 433.85952z" fill="#d81e06" p-id="11845"></path></svg>