<?xml version="1.0" standalone="no"?><!DOCTYPE svg PUBLIC "-//W3C//DTD SVG 1.1//EN" "http://www.w3.org/Graphics/SVG/1.1/DTD/svg11.dtd"><svg t="1734407098340" class="icon" viewBox="0 0 1024 1024" version="1.1" xmlns="http://www.w3.org/2000/svg" p-id="6380" xmlns:xlink="http://www.w3.org/1999/xlink" width="32" height="32"><path d="M48.560665 420.386867a43.114938 43.114938 0 0 1-24.143965-78.899887L520.241988 7.342459a43.114938 43.114938 0 0 1 49.366929 0.861999l431.152381 312.585551a43.114938 43.114938 0 0 1-50.659927 69.8469L543.522955 95.729333 72.705631 413.057877a43.114938 43.114938 0 0 1-24.143966 7.32999z" p-id="6381" fill="#ffffff"></path><path d="M878.529474 1024H630.61683a43.114938 43.114938 0 1 1 0-86.229876h204.797706V476.004787L533.607969 277.783071l-323.364536 209.1097v450.876353h159.849771l101.751854-156.507776-120.183828-64.133907a43.114938 43.114938 0 0 1-12.610982-65.858906l94.853864-112.314839-40.420942-47.426932a43.114938 43.114938 0 1 1 64.672907-56.049919l64.672907 75.451892a43.114938 43.114938 0 0 1 0 55.941919l-84.074879 99.380858 114.578836 61.115912a43.114938 43.114938 0 0 1 15.844977 61.546911L429.053119 1004.490028a43.114938 43.114938 0 0 1-35.569949 19.509972H167.128495a43.114938 43.114938 0 0 1-43.115938-43.114938V463.500805a43.114938 43.114938 0 0 1 19.725972-36.215948l366.479474-237.13366a43.114938 43.114938 0 0 1 47.102932 0l344.921505 226.354675a43.114938 43.114938 0 0 1 19.401972 36.216948v528.161242A43.114938 43.114938 0 0 1 878.529474 1024z" p-id="6382" fill="#ffffff"></path></svg>