<?xml version="1.0" standalone="no"?>
<!DOCTYPE svg PUBLIC "-//W3C//DTD SVG 1.1//EN" "http://www.w3.org/Graphics/SVG/1.1/DTD/svg11.dtd">
<svg t="1731938078102" class="icon" viewBox="0 0 1024 1024" version="1.1" xmlns="http://www.w3.org/2000/svg" p-id="4608" width="200" height="200"><path d="M512 938.666667C276.352 938.666667 85.333333 747.648 85.333333 512S276.352 85.333333 512 85.333333c229.205333 0 416.170667 180.736 426.24 407.466667q-41.642667-38.826667-93.013333-54.826667a341.674667 341.674667 0 0 0-235.52-253.098666 763.733333 763.733333 0 0 1 69.802666 256.853333q-52.053333 19.2-93.525333 62.72-22.826667 23.637333-38.613333 50.218667h-119.466667c6.485333 104.064 36.224 201.813333 84.053333 288.085333 8.106667-14.592 15.658667-29.44 22.613334-44.501333q18.346667 40.448 51.370666 74.666666l46.762667 48.426667c-38.272 11.264-78.805333 17.322667-120.746667 17.322667z m84.010667-469.333334a678.570667 678.570667 0 0 0-84.053334-288.085333A678.613333 678.613333 0 0 0 427.946667 469.333333h168.106666z m-422.698667 0h169.173333A763.733333 763.733333 0 0 1 414.293333 184.874667 341.674667 341.674667 0 0 0 173.312 469.333333zM783.36 922.752l105.301333-109.056c66.688-69.034667 66.688-180.906667 0-249.941333a166.570667 166.570667 0 0 0-241.322666 0c-66.688 69.034667-66.688 180.906667 0 249.941333l105.301333 109.056a21.333333 21.333333 0 0 0 30.72 0z m-369.066667-83.626667A763.733333 763.733333 0 0 1 342.485333 554.666667H173.312a341.674667 341.674667 0 0 0 240.981333 284.458666z m413.013334-216.064c34.688 35.925333 34.688 95.402667 0 131.328L768 815.786667l-59.306667-61.354667c-34.688-35.968-34.688-95.445333 0-131.413333a81.237333 81.237333 0 0 1 118.613334 0z" fill="#ffffff" p-id="4609"></path></svg>
