<?xml version="1.0" standalone="no"?>
<!DOCTYPE svg PUBLIC "-//W3C//DTD SVG 1.1//EN" "http://www.w3.org/Graphics/SVG/1.1/DTD/svg11.dtd">
<svg t="1731159977406" class="icon" viewBox="0 0 1024 1024" version="1.1" xmlns="http://www.w3.org/2000/svg" p-id="9427" width="32" height="32"><path d="M811.292444 540.444444c89.429333 0 160.967111 70.826667 160.967112 159.345778 0 29.496889-8.931556 56.035556-23.836445 79.644445l63.658667 62.919111c5.973333 5.916444 11.918222 17.720889 11.918222 29.496889 0 20.679111-17.891556 38.371556-38.741333 38.371555-11.946667 0-20.878222-5.888-29.809778-11.804444l-63.687111-62.919111c-23.836444 14.762667-50.659556 23.608889-80.497778 23.608889-89.400889 0-160.938667-70.826667-160.938667-159.317334 0-88.519111 71.537778-159.345778 160.967111-159.345778zM220.302222 334.506667c26.424889 0 44.032 17.436444 44.032 43.576889 0 26.168889-17.635556 43.605333-44.032 43.605333h-52.906666L96.967111 770.474667h521.102222a202.012444 202.012444 0 0 0 60.757334 87.210666H44.060444c-13.226667 0-26.453333-4.380444-35.271111-17.464889C0 827.164444 0 818.432 0 805.347556l88.120889-435.968c4.408889-21.788444 22.016-34.872889 44.060444-34.872889h88.120889z m587.747556 253.952c-63.374222 0-114.062222 46.961778-114.062222 105.671111 0 58.680889 50.688 105.642667 114.062222 105.642666 63.345778 0 114.062222-46.933333 114.062222-105.642666s-50.716444-105.671111-114.062222-105.671111z m-177.237334-167.310223c55.580444 0 101.432889 40.903111 107.946667 93.696a204.714667 204.714667 0 0 0-35.470222 17.294223v-4.323556c0-39.253333-32.426667-71.111111-72.476445-71.111111H336.298667c-38.428444 0-69.888 29.354667-72.334223 66.446222l-0.170666 4.664889v90.851556H338.488889v-55.125334h36.266667v55.125334h89.514666v-100.807111h36.266667v100.807111h90.624v-55.125334h36.238222v51.484445A198.912 198.912 0 0 0 612.778667 654.222222H227.555556v-126.407111c0-57.059556 45.681778-103.651556 103.139555-106.524444l5.603556-0.142223h294.513777z m-221.354666 80.924445v39.708444h-74.126222V502.044444h74.126222z m427.633778-167.566222c22.044444 0 39.651556 13.084444 44.088888 34.872889l32.426667 160.341333a204.288 204.288 0 0 0-95.488-27.562667l-16.270222-80.469333h-52.878222c-26.424889 0-44.032-17.436444-44.032-43.605333 0-26.168889 17.635556-43.576889 44.032-43.576889h88.120889zM509.383111 85.333333c31.288889 0 61.297778 12.202667 83.427556 33.905778a114.744889 114.744889 0 0 1 34.360889 75.264l0.199111 6.542222v17.806223h33.166222l0.711111 35.384888h-65.962667v9.756445c0 71.480889-49.664 129.422222-111.274666 129.422222-59.818667 0-108.686222-54.897778-111.502223-123.164444l-0.142222-6.257778v-9.784889h-56.888889v-35.555556h24.263111v-17.777777c0.085333-61.838222 49.635556-112.298667 111.928889-115.399111L457.557333 85.333333h51.825778z m48.384 169.073778h-149.703111v9.756445c0 51.911111 33.905778 93.866667 75.377778 93.866666 40.049778 0 72.817778-38.684444 74.296889-88.291555l0.028444-5.575111v-9.756445zM493.795556 120.888889h-20.650667v71.111111h-36.266667v-68.266667a80.412444 80.412444 0 0 0-60.728889 72.419556l-0.170666 4.920889v17.777778h214.954666l0.199111-17.436445a80.156444 80.156444 0 0 0-56.263111-75.946667l-4.835555-1.365333V192H493.795556v-71.111111z" fill="#ffffff"></path></svg>
