<?xml version="1.0" standalone="no"?><!DOCTYPE svg PUBLIC "-//W3C//DTD SVG 1.1//EN" "http://www.w3.org/Graphics/SVG/1.1/DTD/svg11.dtd"><svg t="1736588012547" class="icon" viewBox="0 0 1024 1024" version="1.1" xmlns="http://www.w3.org/2000/svg" p-id="41375" xmlns:xlink="http://www.w3.org/1999/xlink" width="200" height="200"><path d="M860.96 960H198.24a98.08 98.08 0 0 1-99.84-96v-97.12h66.24V864a32 32 0 0 0 33.28 32H860.8a32 32 0 0 0 32.96-32l-2.88-704a32 32 0 0 0-33.28-32H194.88a32 32 0 0 0-32.96 32v96H96v-96a97.92 97.92 0 0 1 99.04-96h662.24a97.92 97.92 0 0 1 99.84 96L960 863.04a97.92 97.92 0 0 1-99.04 96z" fill="#ffffff" p-id="41376"></path><path d="M97.6 385.44h66.24l1.12 256H98.56z m-33.6-96h132.48v64H64z m1.6 384h132.48v64H65.44z m279.36-470.72a32 32 0 1 0 0 64 32 32 0 1 0 0-64z m66.72 144c0 35.36-132.32 36-132.48 0a71.36 71.36 0 0 1 66.08-71.04 70.88 70.88 0 0 1 66.4 71.04z m-66.72 80a32 32 0 1 0 0 64 32 32 0 1 0 0-64z m66.72 144c0 35.36-132.32 35.84-132.48 0a71.36 71.36 0 0 1 66.08-71.2 71.04 71.04 0 0 1 66.4 71.52z m-66.72 80a32 32 0 1 0 0 64 32 32 0 1 0 0-64z m66.72 144c0 35.52-132.32 36-132.48 0a71.36 71.36 0 0 1 66.08-71.04 70.88 70.88 0 0 1 66.4 71.52zM512 256h331.04v64H512z m0 224h331.04v64H512z m0 224h331.04v64H512z" fill="#ffffff" p-id="41377"></path></svg>