<?xml version="1.0" standalone="no"?><!DOCTYPE svg PUBLIC "-//W3C//DTD SVG 1.1//EN" "http://www.w3.org/Graphics/SVG/1.1/DTD/svg11.dtd"><svg t="1736586920567" class="icon" viewBox="0 0 1024 1024" version="1.1" xmlns="http://www.w3.org/2000/svg" p-id="13046" xmlns:xlink="http://www.w3.org/1999/xlink" width="200" height="200"><path d="M521.092741 500.408889c0-139.994074-111.540148-253.458963-249.135408-253.458963S22.821926 360.414815 22.821926 500.408889a258.322963 258.322963 0 0 0 14.52563 85.366518c21.973333 62.677333 94.971259 168.571259 218.638222 317.805037 0.839111 0.96237 1.801481 1.92 2.763852 2.768593 8.884148 7.324444 21.968593 6.120296 29.174518-2.768593 123.543704-149.001481 196.304593-254.900148 218.396445-317.330963a255.454815 255.454815 0 0 0 14.772148-85.840592z m-249.135408 84.522667c-45.866667 0-83.086222-37.82163-83.086222-84.522667S226.090667 416 271.957333 416s83.081481 37.82637 83.081482 84.408889c-0.118519 46.701037-37.214815 84.522667-83.081482 84.522667z m432.474074-83.446519c0.602074 0.720593 1.208889 1.322667 1.801482 1.801482 5.883259 4.92563 14.767407 4.081778 19.693037-1.801482 83.081481-100.252444 132.062815-171.448889 146.958222-213.475556a173.302519 173.302519 0 0 0 9.841778-57.870222c0-94.132148-75.036444-170.491259-167.604148-170.491259-92.572444 0-167.604148 76.245333-167.604148 170.491259 0 19.569778 3.242667 39.021037 9.723259 57.391408 14.881185 42.145185 63.872 113.464889 147.190518 213.95437z m10.690371-328.25363c30.852741 0 55.826963 25.453037 55.826963 56.789334 0 31.454815-24.978963 56.907852-55.826963 56.907852-30.857481 0-55.831704-25.453037-55.831704-56.907852-0.004741-31.454815 24.969481-56.789333 55.831704-56.789334z m230.878815 515.915852c-75.278222-28.695704-166.888296-21.371259-200.026074-122.823111h-56.192s-28.340148 98.569481 230.528 174.212741c144.080593 49.943704-75.761778 263.186963-489.623704 112.497778l-48.507259 58.112s246.97837 116.100741 478.577777 32.298666 162.446222-224.881778 85.24326-254.298074z" p-id="13047" fill="#ffffff"></path></svg>