<?xml version="1.0" standalone="no"?><!DOCTYPE svg PUBLIC "-//W3C//DTD SVG 1.1//EN" "http://www.w3.org/Graphics/SVG/1.1/DTD/svg11.dtd"><svg t="1739953628192" class="icon" viewBox="0 0 1024 1024" version="1.1" xmlns="http://www.w3.org/2000/svg" p-id="4780" width="200" height="200"><path d="M898.011 93h-145.08l-3.58 30.981C701.886 534.607 485.555 756.252 93.366 797.19c-19.16 2-24.752 7.299-28.44 19.038l-0.263 0.86-0.129 0.438-0.255 0.894-0.251 0.917-0.248 0.94-0.246 0.965-0.244 0.988-0.366 1.527-0.123 0.521c-0.419 1.791-0.642 3.26-0.819 4.851-0.033 0.304-0.065 0.61-0.094 0.924l-0.083 0.956a84.63 84.63 0 0 0-0.106 1.525l-0.06 1.094-0.046 0.929-0.063 1.515-0.087 2.59-0.053 1.94-0.05 2.116-0.055 2.895-0.117 8.489-0.084 10.025-0.058 12.659-0.032 12.745V931h836.75l0.266-838z m-70.022 70l-0.222 698H147.329l3.463-0.492c381.891-56.401 604.757-288.343 662.976-689.172l1.168-8.336h13.053z" fill="#ffffff" p-id="4781"></path><path d="M290.895 841.601C455.534 824.412 567.822 747.53 668.83 640c51.545-54.873 98.328-172.31 140.349-352.313L799.4 832c-339.484 6.448-508.986 9.649-508.505 9.601z" fill="#ffffff" fill-opacity=".412" opacity=".161" p-id="4782"></path><path d="M395.046 358.895c13.893-13.496 36.07-13.122 49.504 0.73l0.404 0.423 36.423 38.807 44.492-40.684 47.238 51.658-69.988 64c-13.993 12.796-35.595 12.104-48.744-1.462l-0.395-0.415-35.7-38.037-40.34 39.19c-13.613 13.224-35.25 13.17-48.798-0.022l-0.408-0.404-38.973-39.192-39.59 39.34c-13.609 13.523-35.531 13.55-49.174 0.164l-0.411-0.41-63.143-64 49.83-49.162 38.473 38.996 39.493-39.242c13.571-13.485 35.42-13.555 49.077-0.26l0.411 0.408 39.25 39.47 41.069-39.896zM265.24 540.173c13.57-13.485 35.418-13.555 49.076-0.26l0.411 0.408 39.25 39.47 41.069-39.896 48.775 50.21-65.881 64c-13.613 13.224-35.25 13.17-48.798-0.022l-0.408-0.404-38.973-39.192-39.59 39.34c-13.609 13.523-35.531 13.55-49.174 0.164l-0.411-0.41-63.143-64 49.83-49.162 38.473 38.996 39.493-39.242z" fill="#ffffff" p-id="4783"></path></svg>
