<?xml version="1.0" standalone="no"?><!DOCTYPE svg PUBLIC "-//W3C//DTD SVG 1.1//EN" "http://www.w3.org/Graphics/SVG/1.1/DTD/svg11.dtd"><svg t="1740377077406" class="icon" viewBox="0 0 1024 1024" version="1.1" xmlns="http://www.w3.org/2000/svg" p-id="4909" width="200" height="200"><path d="M511.942774 1001.109646a487.907902 487.907902 0 0 1-345.873253-143.293618A489.281323 489.281323 0 0 1 321.609478 61.34615a489.510227 489.510227 0 0 1 641.044372 641.044372 490.9981 490.9981 0 0 1-260.37778 260.263328 485.16106 485.16106 0 0 1-190.333296 38.455796z" fill="#EB8304" p-id="4910"></path><path d="M511.942774 45.780709a464.788644 464.788644 0 1 1-181.406058 36.624567 463.644127 463.644127 0 0 1 181.406058-36.624567m0-45.780709C229.132447 0 0 229.246898 0 511.942774s229.132447 512.057226 511.942774 512.057226 511.942774-229.246898 511.942774-512.057226S794.753102 0 511.942774 0z" fill="#FFFFFF" p-id="4911"></path><path d="M411.56857 267.47379L222.379792 452.771208h378.377557L411.56857 267.47379z" fill="#EB8304" p-id="4912"></path><path d="M600.757349 475.661563H222.26534a22.890354 22.890354 0 0 1-16.023248-39.256958l189.188779-185.297418a22.890354 22.890354 0 0 1 32.046496 0l189.30323 185.297418a22.890354 22.890354 0 0 1-16.023248 39.256958z m-322.410641-45.780709h266.329273L411.454119 299.520286z" fill="#FFFFFF" p-id="4913"></path><path d="M709.600984 498.437465l-86.296636 86.754443h172.593271L709.600984 498.437465z" fill="#EB8304" p-id="4914"></path><path d="M795.897619 608.082262H623.304348a23.004806 23.004806 0 0 1-16.252152-39.142506l86.296636-86.639991a22.775903 22.775903 0 0 1 32.389851 0l86.296636 86.639991a23.004806 23.004806 0 0 1-16.1377 39.142506z m-117.541969-45.780708h62.376215L709.600984 530.827316z" fill="#FFFFFF" p-id="4915"></path><path d="M709.600984 411.797474l-72.562424 86.754443h145.124847L709.600984 411.797474z" fill="#EB8304" p-id="4916"></path><path d="M782.163407 521.442271H637.03856a23.004806 23.004806 0 0 1-20.830222-13.161954 22.775903 22.775903 0 0 1 3.20465-24.378227l72.562423-86.754443a22.890354 22.890354 0 0 1 35.136694 0l72.562423 86.754443a22.890354 22.890354 0 0 1-17.511121 37.540181z m-96.139488-45.780708h47.15413L709.600984 447.506427z" fill="#FFFFFF" p-id="4917"></path><path d="M709.600984 325.157483l-63.520734 86.639991h127.041467L709.600984 325.157483z" fill="#EB8304" p-id="4918"></path><path d="M773.121717 434.687828h-127.041467a22.890354 22.890354 0 0 1-20.486867-12.475243 23.119258 23.119258 0 0 1 1.94568-23.92042l63.520734-86.754443a23.119258 23.119258 0 0 1 36.967922 0l63.520733 86.754443a23.119258 23.119258 0 0 1 1.94568 23.92042 22.890354 22.890354 0 0 1-20.372415 12.475243z m-81.947469-45.780708H727.913267l-18.312283-25.064938z" fill="#FFFFFF" p-id="4919"></path><path d="M268.847211 452.771208h285.442719v219.186588H268.847211z" fill="#EB8304" p-id="4920"></path><path d="M554.175478 694.836705H268.73276a22.890354 22.890354 0 0 1-22.890355-22.890354V452.771208a22.890354 22.890354 0 0 1 22.890355-22.890354h285.442718a22.775903 22.775903 0 0 1 22.890354 22.890354v219.175143a22.775903 22.775903 0 0 1-22.890354 22.890354z m-262.552364-45.780709h239.66201V475.661563H291.623114zM804.36705 778.272046H218.717335a22.890354 22.890354 0 1 1 0-45.780708h585.649715a22.890354 22.890354 0 0 1 0 45.780708z" fill="#FFFFFF" p-id="4921"></path><path d="M467.07768 596.98044h-108.729183a22.890354 22.890354 0 0 1 0-45.780708h108.729183a22.890354 22.890354 0 1 1 0 45.780708zM709.600984 694.836705a22.775903 22.775903 0 0 1-22.890355-22.890354v-67.869901a22.890354 22.890354 0 0 1 45.780709 0v67.869901a22.890354 22.890354 0 0 1-22.890354 22.890354z" fill="#FFFFFF" p-id="4922"></path></svg>
